<svg width="76" height="78" viewBox="0 0 76 78" fill="none" xmlns="http://www.w3.org/2000/svg" xmlns:xlink="http://www.w3.org/1999/xlink">
<path d="M28.49,23.68L11.196,23.68C11.02,23.68 10.878,23.823 10.878,23.999L10.878,55.448C10.878,55.624 11.02,55.767 11.196,55.767L28.49,55.767C28.666,55.767 28.809,55.624 28.809,55.448L28.809,23.999C28.809,23.823 28.666,23.68 28.49,23.68Z" transform="rotate(90.099 19.843 39.723)" fill="#2F80ED"/>
<path d="M64.703,23.68L47.585,23.68C47.361,23.68 47.179,23.862 47.179,24.087L47.179,55.36C47.179,55.585 47.361,55.767 47.585,55.767L64.703,55.767C64.927,55.767 65.109,55.585 65.109,55.36L65.109,24.087C65.109,23.862 64.927,23.68 64.703,23.68Z" transform="rotate(269.901 56.144 39.723)" fill="#2F80ED"/>
<path d="M46.445,47.834L29.555,47.834C29.412,47.834 29.297,47.95 29.297,48.093L29.297,64.983C29.297,65.125 29.412,65.241 29.555,65.241L46.445,65.241C46.588,65.241 46.703,65.125 46.703,64.983L46.703,48.093C46.703,47.95 46.588,47.834 46.445,47.834Z" transform="rotate(90.099 38 56.538)" fill="#012555"/>
<path d="M46.445,12.829L29.555,12.829C29.412,12.829 29.297,12.944 29.297,13.087L29.297,29.977C29.297,30.119 29.412,30.235 29.555,30.235L46.445,30.235C46.588,30.235 46.703,30.119 46.703,29.977L46.703,13.087C46.703,12.944 46.588,12.829 46.445,12.829Z" transform="rotate(90.099 38 21.532)" fill="#012555"/>
</svg>
