<svg width="258" height="204" viewBox="0 0 258 204" fill="none" xmlns="http://www.w3.org/2000/svg" xmlns:xlink="http://www.w3.org/1999/xlink">
<path d="M16.711,99.406C15.236,100.535 14.956,102.646 16.086,104.121C17.215,105.595 19.326,105.875 20.8,104.746L16.711,99.406ZM107.981,74.348L108.69,71.06L108.69,71.06L107.981,74.348ZM148.577,118.568L151.923,118.227L148.577,118.568ZM124.896,166.896L123.633,163.779L123.633,163.779L124.896,166.896ZM97.712,160.372L94.899,162.216L97.712,160.372ZM106.531,109.204L109.188,111.266L109.188,111.266L106.531,109.204ZM242.456,58.929C244.284,59.262 246.036,58.05 246.368,56.222C246.7,54.395 245.488,52.644 243.66,52.312L242.456,58.929ZM20.8,104.746C45.292,85.99 76.8,71.063 107.272,77.635L108.69,71.06C75.271,63.852 41.689,80.277 16.711,99.406L20.8,104.746ZM107.272,77.635C126.363,81.753 143.266,99.618 145.231,118.909L151.923,118.227C149.642,95.838 130.431,75.749 108.69,71.06L107.272,77.635ZM145.231,118.909C147.166,137.91 141.057,156.715 123.633,163.779L126.16,170.013C147.613,161.315 153.997,138.588 151.923,118.227L145.231,118.909ZM123.633,163.779C118.989,165.662 114.471,166.302 110.551,165.536C106.724,164.789 103.237,162.665 100.524,158.527L94.899,162.216C98.591,167.846 103.631,171.038 109.262,172.138C114.8,173.219 120.671,172.238 126.16,170.013L123.633,163.779ZM100.524,158.527C96.347,152.157 95.963,143.59 98.068,134.677C100.16,125.817 104.59,117.191 109.188,111.266L103.874,107.142C98.72,113.785 93.848,123.281 91.521,133.131C89.208,142.929 89.29,153.662 94.899,162.216L100.524,158.527ZM109.188,111.266C138.896,72.983 194.686,50.244 242.456,58.929L243.66,52.312C193.294,43.154 135.038,66.983 103.874,107.142L109.188,111.266Z" transform="rotate(-38.418 130.907 111.469)" fill="url(#ps_0_0_1220)"/>
<path d="M187.529,1.656C185.936,0.7 183.871,1.216 182.915,2.809C181.959,4.402 182.476,6.468 184.069,7.423L187.529,1.656ZM214.81,29.338C216.123,30.651 218.252,30.651 219.566,29.338C220.879,28.025 220.879,25.895 219.566,24.582L214.81,29.338ZM184.069,7.423C187.752,9.633 193.746,13.407 199.696,17.51C205.701,21.65 211.457,25.986 214.81,29.338L219.566,24.582C215.743,20.76 209.542,16.128 203.514,11.972C197.433,7.779 191.319,3.929 187.529,1.656L184.069,7.423Z" transform="rotate(-38.418 201.493 15.75)" fill="url(#ps_0_0_1221)"/>
<path d="M194.919,22.828C193.326,21.872 191.261,22.389 190.305,23.982C189.349,25.574 189.866,27.64 191.459,28.596L194.919,22.828ZM222.2,50.511C223.513,51.824 225.642,51.824 226.956,50.511C228.269,49.197 228.269,47.068 226.956,45.755L222.2,50.511ZM191.459,28.596C195.142,30.806 201.136,34.579 207.086,38.682C213.091,42.822 218.847,47.158 222.2,50.511L226.956,45.755C223.133,41.932 216.932,37.3 210.904,33.144C204.823,28.952 198.709,25.102 194.919,22.828L191.459,28.596Z" transform="rotate(321.582 208.883 36.922)" fill="url(#ps_0_0_1222)"/>
<defs>
<linearGradient id="ps_0_0_1220" x1="255.814" y1="129.102" x2="6" y2="93.835" gradientUnits="userSpaceOnUse">
<stop stop-color="#992FED"/>
<stop offset="1" stop-color="#2F80ED"/>
</linearGradient>
<linearGradient id="ps_0_0_1221" x1="220.002" y1="21.172" x2="182.984" y2="10.327" gradientUnits="userSpaceOnUse">
<stop stop-color="#992FED"/>
<stop offset="1" stop-color="#2F80ED"/>
</linearGradient>
<linearGradient id="ps_0_0_1222" x1="190.374" y1="31.5" x2="227.392" y2="42.345" gradientUnits="userSpaceOnUse">
<stop stop-color="#992FED"/>
<stop offset="1" stop-color="#2F80ED"/>
</linearGradient>
</defs>
</svg>
