<svg width="36" height="36" viewBox="0 0 36 36" fill="none" xmlns="http://www.w3.org/2000/svg" xmlns:xlink="http://www.w3.org/1999/xlink">
<path d="M12.814,16.445C13.72,17.353 14.934,17.889 16.216,17.946L16.216,19.03L16.222,19.03C16.234,19.57 16.675,20 17.215,20C17.755,20 18.196,19.57 18.208,19.03L18.214,19.03L18.214,17.898C19.097,17.836 19.923,17.443 20.53,16.799C21.136,16.156 21.478,15.307 21.488,14.423C21.548,13.499 21.218,12.593 20.578,11.923C19.943,11.39 19.154,11.071 18.326,11.014L16.934,10.815L16.935,10.815C16.532,10.774 16.152,10.612 15.843,10.35C15.614,10.129 15.488,9.823 15.495,9.505C15.495,8.697 16.09,8.017 17.315,8.017C18.197,7.949 19.069,8.241 19.733,8.826L19.735,8.823L19.735,8.823C19.928,9.023 20.193,9.135 20.47,9.135C20.747,9.135 21.011,9.023 21.204,8.823C21.396,8.624 21.499,8.355 21.49,8.079C21.48,7.802 21.358,7.541 21.152,7.356C20.352,6.598 19.313,6.143 18.214,6.068L18.214,4.945C18.172,4.421 17.741,4.014 17.215,4C16.693,4.002 16.258,4.401 16.212,4.921L16.216,6.141L16.216,6.141C15.389,6.257 14.633,6.672 14.091,7.308C13.549,7.943 13.259,8.755 13.275,9.59C13.226,10.446 13.532,11.284 14.12,11.907C14.758,12.468 15.559,12.811 16.405,12.886L17.828,13.084C18.212,13.103 18.579,13.248 18.872,13.497C19.129,13.761 19.261,14.123 19.236,14.491C19.236,15.434 18.508,15.947 17.149,15.947C16.116,16.014 15.1,15.662 14.328,14.973C14.135,14.771 13.869,14.655 13.589,14.65C13.31,14.645 13.04,14.752 12.839,14.947C12.639,15.142 12.524,15.408 12.521,15.688C12.518,15.968 12.626,16.237 12.822,16.436L12.814,16.445Z" fill="#4499FE"/>
<path d="M33.976,11.428L29.004,8.666L29.004,4C29.004,2.939 28.583,1.922 27.833,1.172C27.082,0.422 26.065,0 25.004,0L9.005,0C7.944,0 6.926,0.422 6.176,1.172C5.426,1.922 5.005,2.939 5.005,4L5.005,8.666L0.033,11.428C-0.279,11.602 -0.538,11.855 -0.719,12.162C-0.9,12.47 -0.995,12.82 -0.995,13.177L-0.995,30C-0.995,31.591 -0.363,33.118 0.762,34.243C1.887,35.368 3.413,36 5.005,36L29.005,36C30.596,36 32.122,35.368 33.247,34.243C34.372,33.118 35.005,31.591 35.005,30L35.005,13.177C35.005,12.82 34.909,12.47 34.728,12.162C34.548,11.855 34.288,11.602 33.976,11.428L33.976,11.428ZM29.674,17.842L17.674,23.842C17.253,24.053 16.756,24.053 16.334,23.842L4.334,17.842C3.978,17.664 3.708,17.352 3.581,16.975C3.456,16.598 3.485,16.186 3.662,15.83C3.84,15.474 4.152,15.203 4.529,15.077C4.906,14.951 5.318,14.981 5.674,15.158L7.004,15.823L7.004,4C7.005,3.47 7.216,2.961 7.591,2.586C7.966,2.211 8.474,2 9.004,2L25.005,2L25.004,2C25.535,2 26.043,2.211 26.418,2.586C26.793,2.961 27.004,3.47 27.004,4L27.004,15.823L28.334,15.158L28.334,15.158C28.69,14.981 29.102,14.951 29.479,15.077C29.857,15.203 30.168,15.474 30.346,15.83C30.524,16.186 30.553,16.598 30.427,16.975C30.301,17.352 30.03,17.664 29.674,17.842L29.674,17.842Z" fill="#4499FE"/>
</svg>
