<svg width="42" height="30" viewBox="0 0 42 30" fill="none" xmlns="http://www.w3.org/2000/svg" xmlns:xlink="http://www.w3.org/1999/xlink">
<path d="M19.897,16.418C19.939,16.375 19.981,16.333 20.024,16.333C19.008,14.683 17.315,13.667 15.242,13.71C14.988,13.71 14.734,13.879 14.65,14.133L12.576,20.311L11.857,16.63L11.984,16.63C12.238,16.63 12.449,16.418 12.449,16.164L12.449,14.895C12.449,14.641 12.238,14.429 11.984,14.429L10.334,14.429C10.08,14.429 9.868,14.641 9.868,14.895L9.868,16.164C9.868,16.418 10.08,16.63 10.334,16.63L10.461,16.63L9.741,20.311L7.668,14.133C7.583,13.879 7.372,13.71 7.075,13.71C4.24,13.625 2.125,15.614 1.49,18.406L0.052,24.373C-0.245,25.727 0.771,26.996 2.125,26.996L15.877,26.996L15.877,26.954L17.273,20.945C17.696,19.126 18.585,17.56 19.897,16.418L19.897,16.418Z" fill="#F88341"/>
<path d="M17.738,6.601C17.738,10.247 14.783,13.202 11.138,13.202C7.492,13.202 4.537,10.247 4.537,6.601C4.537,2.955 7.492,0 11.138,0C14.783,0 17.738,2.955 17.738,6.601Z" fill="#F88341"/>
<path d="M40.162,27.419L38.808,21.452C38.173,18.66 36.058,16.671 33.222,16.756C32.969,16.756 32.715,16.925 32.63,17.179L30.557,23.357L29.837,19.676L29.964,19.676C30.218,19.676 30.43,19.464 30.43,19.21L30.43,17.941C30.43,17.687 30.218,17.475 29.964,17.475L28.314,17.475C28.06,17.475 27.849,17.687 27.849,17.941L27.849,19.21C27.849,19.464 28.06,19.676 28.314,19.676L28.441,19.676L27.722,23.357L25.564,17.137C25.479,16.883 25.267,16.714 24.971,16.714C22.136,16.629 20.021,18.618 19.386,21.41L18.032,27.377C17.735,28.731 18.751,30 20.105,30L38.046,30C39.443,30 40.458,28.731 40.162,27.419L40.162,27.419Z" fill="#F88341"/>
<path d="M35.685,9.647C35.685,13.293 32.73,16.248 29.084,16.248C25.439,16.248 22.483,13.293 22.483,9.647C22.483,6.002 25.439,3.046 29.084,3.046C32.73,3.046 35.685,6.002 35.685,9.647Z" fill="#F88341"/>
</svg>
