<svg width="1024" height="956" viewBox="0 0 1024 956" fill="none" xmlns="http://www.w3.org/2000/svg" xmlns:xlink="http://www.w3.org/1999/xlink">
<g filter="url(#filterI0_1272;921_23111)">
<path d="M294,44L317.134,168.799L409.206,81.433L354.568,195.995L480.408,179.433L368.866,240L480.408,300.568L354.568,284.004L409.206,398.568L317.134,311.202L294,436L270.865,311.202L178.794,398.568L233.433,284.004L107.593,300.568L219.135,240L107.593,179.433L233.433,195.995L178.794,81.433L270.865,168.799L294,44Z" fill="#FF7169"/>
<g opacity="0.7">
<path d="M326.366,399.367L450.744,679.249L651.992,918.297L326.366,877.463L0.741,918.297L201.988,679.249L326.366,399.367Z" transform="rotate(-54.241 326.366 745.32)" fill="#3797D2"/>
</g>
<g opacity="0.8">
<path d="M680.596,516.328L711.044,655.81L832.216,558.165L760.308,686.207L925.922,667.695L779.124,735.388L925.922,803.082L760.308,784.57L832.216,912.612L711.044,814.966L680.596,954.448L650.15,814.966L528.977,912.612L600.885,784.57L435.271,803.082L582.068,735.388L435.271,667.695L600.885,686.207L528.977,558.165L650.15,655.81L680.596,516.328Z" transform="rotate(-71.696 680.596 735.389)" fill="#FF940A"/>
</g>
<g opacity="0.6">
<path d="M725,0L761.944,199.296L908.976,59.778L821.722,242.728L1022.68,216.278L844.556,313L1022.68,409.722L821.722,383.272L908.976,566.222L761.944,426.704L725,626L688.056,426.704L541.023,566.222L628.278,383.272L427.319,409.722L605.445,313L427.319,216.278L628.278,242.728L541.023,59.778L688.056,199.296L725,0Z" fill="#945FF6"/>
</g>
</g>
<defs>
<filter id="filterI0_1272;921_23111" x="-48" y="-104" width="735" height="750" filterUnits="userSpaceOnUse" color-interpolation-filters="sRGB">
<feFlood flood-opacity="0" result="BackgroundImageFix"/>
<feBlend mode="normal" in="SourceGraphic" in2="BackgroundImageFix" result="shape"/>
<feGaussianBlur stdDeviation="80" result="0foregroundblur"/>
</filter>
</defs>
</svg>
