<svg width="32" height="34" viewBox="0 0 32 34" fill="none" xmlns="http://www.w3.org/2000/svg" xmlns:xlink="http://www.w3.org/1999/xlink">
<path d="M14.536,28.455C15.772,28.455 17.021,28.281 18.198,27.967L18.194,27.969C19.594,30.37 21.465,32.419 24.997,32.419C30.834,32.419 31.481,27.042 31.361,25.748L29.271,25.748C29.163,26.72 28.515,27.957 26.914,27.957C25.445,27.957 24.389,26.936 23.368,25.401C26.54,22.944 28.721,19.144 28.721,14.468C28.721,6.059 21.798,0.4 14.534,0.4C7.39,0.4 0.398,6.103 0.398,14.468C0.398,22.756 7.392,28.455 14.536,28.455ZM11.92,20.977C14.46,20.977 15.76,23.184 16.869,25.365C16.16,25.573 15.388,25.665 14.536,25.665C9.173,25.665 6.852,21.879 6.852,14.467C6.852,7.015 9.173,3.189 14.536,3.189C19.978,3.189 22.308,7.015 22.308,14.467C22.308,17.451 21.919,19.86 21.099,21.641C19.714,19.556 17.971,17.915 14.576,17.915C12.392,17.915 10.694,18.632 9.645,19.536L10.505,21.257C10.95,21.057 11.436,20.977 11.92,20.977Z" clip-rule="evenodd" fill-rule="evenodd" fill="#FFFFFF"/>
</svg>
