<svg width="28" height="28" viewBox="0 0 28 28" fill="none" xmlns="http://www.w3.org/2000/svg" xmlns:xlink="http://www.w3.org/1999/xlink">
<path d="M6.754,4.058C6.754,5.758 5.474,7.118 3.42,7.118L3.382,7.118C1.404,7.118 0.125,5.758 0.125,4.058C0.125,2.322 1.443,1 3.458,1C5.474,1 6.715,2.322 6.754,4.058ZM6.361,9.534L6.361,27.238L0.469,27.238L0.469,9.534L6.361,9.534ZM27.613,27.238L27.613,17.088C27.613,11.65 24.706,9.119 20.829,9.119C17.701,9.119 16.3,10.837 15.518,12.043L15.518,9.535L9.625,9.535C9.703,11.197 9.625,27.239 9.625,27.239L15.518,27.239L15.518,17.352C15.518,16.823 15.556,16.295 15.712,15.916C16.138,14.859 17.107,13.765 18.735,13.765C20.868,13.765 21.721,15.388 21.721,17.767L21.721,27.238L27.613,27.238Z" clip-rule="evenodd" fill-rule="evenodd" fill="#FFFFFF"/>
</svg>
