<svg width="38" height="38" viewBox="0 0 38 38" fill="none" xmlns="http://www.w3.org/2000/svg" xmlns:xlink="http://www.w3.org/1999/xlink">
<path d="M8.571,6.686L8.571,1.029C8.571,0.529 8.77,0.049 9.124,-0.305C9.477,-0.658 9.957,-0.857 10.457,-0.857L25.543,-0.857C26.043,-0.857 26.523,-0.658 26.876,-0.305C27.23,0.049 27.429,0.529 27.429,1.029L27.429,6.686L34.971,6.686C35.471,6.686 35.951,6.885 36.305,7.238C36.658,7.592 36.857,8.072 36.857,8.572L36.857,34.972C36.857,35.472 36.658,35.951 36.305,36.305C35.951,36.659 35.471,36.857 34.971,36.857L1.029,36.857C0.528,36.857 0.049,36.659 -0.305,36.305C-0.658,35.951 -0.857,35.472 -0.857,34.972L-0.857,8.572C-0.857,8.072 -0.658,7.592 -0.305,7.238C0.049,6.885 0.528,6.686 1.029,6.686L8.571,6.686ZM33.086,21.772L2.914,21.772L2.914,33.086L33.086,33.086L33.086,21.772ZM33.086,10.457L2.914,10.457L2.914,18L8.571,18L8.571,14.229L12.343,14.229L12.343,18L23.657,18L23.657,14.229L27.429,14.229L27.429,18L33.086,18L33.086,10.457ZM12.343,2.914L12.343,6.686L23.657,6.686L23.657,2.914L12.343,2.914Z" fill="#000000"/>
</svg>
