<svg width="60" height="56" viewBox="0 0 60 56" fill="none" xmlns="http://www.w3.org/2000/svg" xmlns:xlink="http://www.w3.org/1999/xlink">
<path d="M2,1L56,1C56.796,1 57.559,1.316 58.121,1.879C58.684,2.441 59,3.204 59,4L59,52C59,52.796 58.684,53.559 58.121,54.121C57.559,54.684 56.796,55 56,55L2,55C1.204,55 0.441,54.684 -0.121,54.121C-0.684,53.559 -1,52.796 -1,52L-1,4C-1,3.204 -0.684,2.441 -0.121,1.879C0.441,1.316 1.204,1 2,1ZM5,7L5,49L53,49L53,7L5,7ZM29,37L47,37L47,43L29,43L29,37ZM19.001,28L10.514,19.516L14.759,15.271L27.485,28L14.759,40.729L10.514,36.484L19.001,28Z" fill="#000000"/>
</svg>
