<svg width="38" height="38" viewBox="0 0 38 38" fill="none" xmlns="http://www.w3.org/2000/svg" xmlns:xlink="http://www.w3.org/1999/xlink">
<path d="M8.569,6.685L8.569,1.028C8.569,0.528 8.768,0.049 9.122,-0.305C9.475,-0.659 9.955,-0.857 10.455,-0.857L25.541,-0.857C26.041,-0.857 26.52,-0.659 26.874,-0.305C27.228,0.049 27.426,0.528 27.426,1.028L27.426,6.685L34.969,6.685C35.469,6.685 35.949,6.884 36.303,7.238C36.656,7.591 36.855,8.071 36.855,8.571L36.855,34.971C36.855,35.471 36.656,35.951 36.303,36.305C35.949,36.658 35.469,36.857 34.969,36.857L1.026,36.857C0.526,36.857 0.047,36.658 -0.307,36.305C-0.661,35.951 -0.859,35.471 -0.859,34.971L-0.859,8.571C-0.859,8.071 -0.661,7.591 -0.307,7.238C0.047,6.884 0.526,6.685 1.026,6.685L8.569,6.685ZM33.083,21.771L2.912,21.771L2.912,33.085L33.083,33.085L33.083,21.771ZM33.083,10.457L2.912,10.457L2.912,18L8.569,18L8.569,14.228L12.341,14.228L12.341,18L23.655,18L23.655,14.228L27.426,14.228L27.426,18L33.083,18L33.083,10.457ZM12.341,2.914L12.341,6.685L23.655,6.685L23.655,2.914L12.341,2.914Z" fill="#000000"/>
</svg>
