<svg width="48" height="56" viewBox="0 0 48 56" fill="none" xmlns="http://www.w3.org/2000/svg" xmlns:xlink="http://www.w3.org/1999/xlink">
<path d="M25.926,19.962L33.764,19.962C37.229,19.962 40.552,18.585 43.002,16.135C45.452,13.685 46.829,10.362 46.829,6.897L46.829,0.8L33.764,0.8C30.299,0.8 26.976,2.176 24.527,4.627C22.076,7.077 20.7,10.399 20.7,13.864L20.7,19.09C18.441,17.389 15.689,16.471 12.861,16.477L-0.203,16.477L-0.203,22.574C-0.203,26.039 1.173,29.362 3.623,31.812C6.073,34.262 9.397,35.639 12.861,35.639L20.7,35.639L20.7,54.8L25.926,54.8L25.926,47.832L33.764,47.832C37.229,47.832 40.552,46.455 43.002,44.005C45.453,41.555 46.829,38.232 46.829,34.767L46.829,28.671L33.764,28.671C30.937,28.664 28.184,29.581 25.926,31.283L25.926,19.962ZM25.926,13.865L25.926,13.864C25.926,11.785 26.751,9.792 28.222,8.322C29.691,6.851 31.685,6.026 33.764,6.026L41.603,6.026L41.603,6.897L41.603,6.897C41.603,8.976 40.777,10.969 39.307,12.44C37.837,13.91 35.843,14.736 33.764,14.736L25.926,14.736L25.926,13.865ZM12.861,30.413C10.782,30.413 8.788,29.587 7.318,28.117C5.849,26.647 5.022,24.653 5.022,22.574L5.022,21.704L12.861,21.704C14.94,21.704 16.934,22.529 18.404,23.999C19.874,25.469 20.7,27.463 20.7,29.542L20.7,30.413L12.861,30.413ZM33.765,33.897L41.603,33.897L41.603,34.768L41.604,34.768C41.604,36.847 40.777,38.841 39.308,40.311C37.837,41.781 35.844,42.607 33.764,42.607L25.926,42.607L25.926,41.736C25.926,39.657 26.752,37.663 28.222,36.193C29.692,34.723 31.686,33.897 33.765,33.897L33.765,33.897Z" fill="#2B2F34"/>
</svg>
