<svg width="30" height="32" viewBox="0 0 30 32" fill="none" xmlns="http://www.w3.org/2000/svg" xmlns:xlink="http://www.w3.org/1999/xlink">
<path d="M10.61,13.803C12.174,16.551 14.449,18.826 17.197,20.39L18.67,18.327C18.907,17.995 19.257,17.761 19.655,17.671C20.052,17.58 20.469,17.638 20.827,17.833C23.184,19.122 25.787,19.896 28.465,20.107C28.883,20.14 29.273,20.329 29.558,20.637C29.842,20.945 30,21.349 30,21.768L30,29.205C30,29.618 29.847,30.016 29.571,30.322C29.294,30.628 28.914,30.821 28.503,30.863C27.62,30.955 26.73,31 25.833,31C11.567,31 0,19.433 0,5.167C0,4.27 0.045,3.38 0.137,2.497C0.179,2.086 0.372,1.706 0.678,1.429C0.984,1.153 1.382,1 1.795,1L9.232,1C9.651,1 10.055,1.158 10.363,1.442C10.671,1.727 10.86,2.117 10.893,2.535C11.104,5.213 11.878,7.816 13.167,10.173C13.362,10.531 13.42,10.948 13.329,11.345C13.239,11.743 13.005,12.093 12.673,12.33L10.61,13.803L10.61,13.803ZM6.407,12.708L9.573,10.447C8.675,8.507 8.059,6.448 7.745,4.333L3.35,4.333C3.34,4.61 3.335,4.888 3.335,5.167C3.333,17.593 13.407,27.667 25.833,27.667C26.112,27.667 26.39,27.662 26.667,27.65L26.667,23.255C24.552,22.941 22.493,22.325 20.553,21.427L18.292,24.593C17.381,24.24 16.497,23.822 15.645,23.343L15.548,23.288C12.279,21.428 9.572,18.721 7.712,15.452L7.657,15.355C7.178,14.503 6.76,13.619 6.407,12.708L6.407,12.708Z" fill="#8393A9"/>
</svg>
