<svg width="38" height="34" viewBox="0 0 38 34" fill="none" xmlns="http://www.w3.org/2000/svg" xmlns:xlink="http://www.w3.org/1999/xlink">
<path d="M19.838,13.333L29.005,13.333L18.005,24.333L7.005,13.333L16.172,13.333L16.172,0.5L19.838,0.5L19.838,13.333ZM3.339,29.833L32.672,29.833L32.672,17L36.338,17L36.338,31.667C36.338,32.153 36.145,32.619 35.801,32.963C35.458,33.307 34.991,33.5 34.505,33.5L1.505,33.5C1.019,33.5 0.553,33.307 0.209,32.963C-0.135,32.619 -0.328,32.153 -0.328,31.667L-0.328,17L3.339,17L3.339,29.833Z" fill="#2F80ED"/>
</svg>
