<svg width="34" height="34" viewBox="0 0 34 34" fill="none" xmlns="http://www.w3.org/2000/svg" xmlns:xlink="http://www.w3.org/1999/xlink">
<path d="M15.995,32.666C6.79,32.666 -0.672,25.205 -0.672,16C-0.672,6.795 6.79,-0.667 15.995,-0.667C25.2,-0.667 32.662,6.795 32.662,16C32.662,25.205 25.2,32.666 15.995,32.666ZM15.995,29.333C19.531,29.333 22.922,27.928 25.423,25.428C27.923,22.927 29.328,19.536 29.328,16C29.328,12.463 27.923,9.072 25.423,6.572C22.922,4.071 19.531,2.666 15.995,2.666C12.459,2.666 9.067,4.071 6.567,6.572C4.066,9.072 2.661,12.463 2.661,16C2.661,19.536 4.066,22.927 6.567,25.428C9.067,27.928 12.459,29.333 15.995,29.333L15.995,29.333ZM17.661,16L24.328,16L24.328,19.333L14.328,19.333L14.328,7.666L17.661,7.666L17.661,16Z" fill="#000000"/>
</svg>
