<svg width="34" height="34" viewBox="0 0 34 34" fill="none" xmlns="http://www.w3.org/2000/svg" xmlns:xlink="http://www.w3.org/1999/xlink">
<path d="M29.342,-0.667C31.178,-0.667 32.667,0.83 32.667,2.65L32.667,29.35C32.667,31.182 31.178,32.667 29.342,32.667L2.667,32.667L2.667,26L-0.667,26L-0.667,22.667L2.667,22.667L2.667,17.667L-0.667,17.667L-0.667,14.333L2.667,14.333L2.667,9.333L-0.667,9.333L-0.667,6L2.667,6L2.667,-0.667L29.342,-0.667ZM9.333,2.667L6,2.667L6,29.333L9.333,29.333L9.333,2.667ZM29.333,2.667L12.667,2.667L12.667,29.333L29.333,29.333L29.333,2.667Z" fill="#000000"/>
</svg>
