<svg width="28" height="36" viewBox="0 0 28 36" fill="none" xmlns="http://www.w3.org/2000/svg" xmlns:xlink="http://www.w3.org/1999/xlink">
<path d="M14.005,7.667C17.541,7.667 20.933,9.071 23.433,11.572C25.934,14.072 27.338,17.464 27.338,21C27.338,24.536 25.934,27.928 23.433,30.428C20.933,32.929 17.541,34.333 14.005,34.333C10.469,34.333 7.078,32.929 4.577,30.428C2.077,27.928 0.672,24.536 0.672,21C0.672,17.464 2.077,14.072 4.577,11.572C7.078,9.071 10.469,7.667 14.005,7.667L14.005,7.667ZM14.005,13.5L11.8,17.967L6.872,18.683L10.439,22.158L9.597,27.068L14.005,24.75L18.414,27.067L17.572,22.158L21.138,18.682L16.21,17.965L14.005,13.5ZM15.672,-0.668L24.005,-0.667L24.005,4.333L21.733,6.23C19.848,5.241 17.79,4.625 15.672,4.415L15.672,-0.667L15.672,-0.668ZM12.339,-0.668L12.339,4.415C10.221,4.624 8.163,5.24 6.279,6.228L4.005,4.333L4.005,-0.667L12.339,-0.668L12.339,-0.668Z" fill="#FF7169"/>
</svg>
